<svg width="23" height="8" viewBox="0 0 23 8" fill="none" xmlns="http://www.w3.org/2000/svg">
<path d="M1.80036 7.90823C1.44836 7.90823 1.13636 7.84023 0.864359 7.70423C0.592359 7.56023 0.380359 7.35623 0.228359 7.09223C0.0763594 6.82023 0.000359401 6.49223 0.000359401 6.10823C0.000359401 5.74823 0.0683594 5.45223 0.204359 5.22023C0.348359 4.98023 0.552359 4.79223 0.816359 4.65623C1.08836 4.51223 1.41236 4.39623 1.78836 4.30823C2.16436 4.21223 2.59236 4.12823 3.07236 4.05623C3.30436 4.01623 3.49636 3.98023 3.64836 3.94823C3.80836 3.90823 3.92836 3.84823 4.00836 3.76823C4.08836 3.68823 4.12836 3.57223 4.12836 3.42023C4.12836 3.22023 4.05636 3.04823 3.91236 2.90423C3.76836 2.76023 3.53636 2.68823 3.21636 2.68823C2.99236 2.68823 2.78836 2.72823 2.60436 2.80823C2.42836 2.88823 2.27636 3.00423 2.14836 3.15623C2.02036 3.30823 1.92436 3.49223 1.86036 3.70823L0.156359 3.20423C0.260359 2.86823 0.404359 2.57623 0.588359 2.32823C0.780359 2.08023 1.00836 1.87623 1.27236 1.71623C1.53636 1.54823 1.83636 1.42823 2.17236 1.35623C2.51636 1.27623 2.88036 1.23623 3.26436 1.23623C3.90436 1.23623 4.42436 1.34023 4.82436 1.54823C5.23236 1.74823 5.53236 2.06423 5.72436 2.49623C5.92436 2.92023 6.02436 3.46823 6.02436 4.14023V5.11223C6.02436 5.40023 6.02836 5.69223 6.03636 5.98823C6.05236 6.27623 6.06836 6.56823 6.08436 6.86423C6.10836 7.15223 6.13636 7.44423 6.16836 7.74023H4.46436C4.43236 7.55623 4.40036 7.33623 4.36836 7.08023C4.33636 6.81623 4.31236 6.54823 4.29636 6.27623H4.06836C3.95636 6.58023 3.79236 6.86023 3.57636 7.11623C3.36836 7.36423 3.11236 7.56023 2.80836 7.70423C2.51236 7.84023 2.17636 7.90823 1.80036 7.90823ZM2.67636 6.54023C2.82036 6.54023 2.96436 6.51623 3.10836 6.46823C3.26036 6.41223 3.40436 6.34023 3.54036 6.25223C3.67636 6.15623 3.80036 6.04023 3.91236 5.90423C4.02436 5.76823 4.10836 5.62023 4.16436 5.46023L4.14036 4.51223L4.40436 4.57223C4.25236 4.66823 4.08436 4.74423 3.90036 4.80023C3.71636 4.85623 3.52836 4.90023 3.33636 4.93223C3.15236 4.96423 2.96836 5.00023 2.78436 5.04023C2.60836 5.07223 2.44836 5.11623 2.30436 5.17223C2.16836 5.22823 2.06036 5.30423 1.98036 5.40023C1.90036 5.49623 1.86036 5.62823 1.86036 5.79623C1.86036 6.02023 1.93636 6.20023 2.08836 6.33623C2.24036 6.47223 2.43636 6.54023 2.67636 6.54023ZM9.92108 7.89623C9.17708 7.89623 8.62908 7.70023 8.27708 7.30823C7.92508 6.90823 7.74908 6.27223 7.74908 5.40023V2.91623H6.84908L6.88508 1.41623H7.53308C7.78908 1.40823 7.98108 1.36823 8.10908 1.29623C8.24508 1.22423 8.32908 1.08823 8.36108 0.888234L8.51708 0.000233889H9.60908V1.40423H11.1331V2.97623H9.60908V5.31623C9.60908 5.58823 9.67308 5.78823 9.80108 5.91623C9.93708 6.04423 10.1411 6.10823 10.4131 6.10823C10.5651 6.10823 10.7091 6.09223 10.8451 6.06023C10.9811 6.02823 11.0931 5.98423 11.1811 5.92823V7.71623C10.9251 7.79623 10.6891 7.84423 10.4731 7.86023C10.2651 7.88423 10.0811 7.89623 9.92108 7.89623ZM12.3241 7.74023V3.64823V1.40423H13.8481L13.8721 3.26423H14.1121C14.2241 2.80823 14.3721 2.43223 14.5561 2.13623C14.7401 1.83223 14.9641 1.60823 15.2281 1.46423C15.4921 1.31223 15.8001 1.23623 16.1521 1.23623C16.5201 1.23623 16.8241 1.31623 17.0641 1.47623C17.3121 1.62823 17.5081 1.85623 17.6521 2.16023C17.7961 2.45623 17.8921 2.82423 17.9401 3.26423H18.1441C18.2721 2.79223 18.4401 2.40823 18.6481 2.11223C18.8561 1.80823 19.1041 1.58823 19.3921 1.45223C19.6801 1.30823 19.9921 1.23623 20.3281 1.23623C20.6881 1.23623 21.0001 1.30823 21.2641 1.45223C21.5361 1.58823 21.7601 1.79623 21.9361 2.07623C22.1201 2.34823 22.2561 2.69223 22.3441 3.10823C22.4321 3.51623 22.4761 3.99223 22.4761 4.53623V7.74023H20.5321V4.77623C20.5321 4.35223 20.4961 4.00023 20.4241 3.72023C20.3601 3.44023 20.2561 3.23223 20.1121 3.09623C19.9681 2.95223 19.7841 2.88023 19.5601 2.88023C19.3041 2.88023 19.0841 2.96423 18.9001 3.13223C18.7241 3.30023 18.5881 3.53623 18.4921 3.84023C18.3961 4.13623 18.3481 4.47223 18.3481 4.84823V7.74023H16.4521V4.81223C16.4521 4.37223 16.4121 4.01223 16.3321 3.73223C16.2601 3.45223 16.1481 3.24023 15.9961 3.09623C15.8521 2.95223 15.6681 2.88023 15.4441 2.88023C15.1881 2.88023 14.9721 2.96423 14.7961 3.13223C14.6201 3.30023 14.4841 3.53623 14.3881 3.84023C14.3001 4.13623 14.2561 4.47223 14.2561 4.84823V7.74023H12.3241Z" fill="#D9D9D9"/>
</svg>
